# xmcd
#
# Track frame offsets: 
#        150
#        14919
#        35405
#        52602
#        67560
#        86862
#        103732
#        118194
#        133516
#        143567
#        160654
#        188529
#
# Disc length: 2744 seconds
#
# Revision: 0
# Processed by: cddbd v1.5.2PL0 Copyright (c) Steve Scherf et al.
# Submitted via: ExactAudioCopy v1.0b1
#
DISCID=950ab60c
DTITLE=Jolanta Litwin-Sarzyńska - Moja mama Janis Joplin
DYEAR=2010
DGENRE=Blues
TTITLE0=Może
TTITLE1=Ja i Bobby McGee
TTITLE2=Kukułka
TTITLE3=Cała noc
TTITLE4=Kosmiczny Blues
TTITLE5=Rozwiąż mi ręce
TTITLE6=Biedna mała
TTITLE7=Wiem (musisz starać się bardziej)
TTITLE8=Mercedes
TTITLE9=Na jedną noc
TTITLE10=Kula u nóg
TTITLE11=Opuszczona kobieta
EXTD=
EXTT0=
EXTT1=
EXTT2=
EXTT3=
EXTT4=
EXTT5=
EXTT6=
EXTT7=
EXTT8=
EXTT9=
EXTT10=
EXTT11=
PLAYORDER=
